<svg xmlns="http://www.w3.org/2000/svg" height="24" width="24"><defs><linearGradient id="a" x1="0" y1="0" x2="1" y2="1"><stop offset="0%" stop-color="#4c1d95"/><stop offset="100%" stop-color="#0f172a"/></linearGradient></defs><rect width="100%" height="100%" rx="3" fill="url(#a)"/><path d="M5.333 18.667q-.687 0-1.176-.49T3.667 17V7q0-.687.49-1.177t1.176-.49h13.334q.687 0 1.177.49T20.334 7v10q0 .688-.49 1.178t-1.177.489zm0-1.667h13.334V8.667H5.333zm2.917-.833L7.083 15l2.146-2.167-2.167-2.166L8.25 9.5l3.333 3.333zm3.75 0V14.5h5v1.667z" fill="#f5f5f5"/></svg>